# xmcd
#
# Track frame offsets:
#	150
#	12045
#	23405
#	34802
#	45825
#	59715
#	70902
#	84512
#	95645
#	109432
#	120837
#	132262
#	144057
#	156672
#	168942
#	181332
#	192722
#	203355
#	216227
#	228125
#	237947
#	250305
#	260275
#	272665
#	285090
#	295250
#	308080
#	317142
#
# Disc length: 4380 seconds
# Revision: 3
# Processed by: cddbd v1.5.2PL0 Copyright (c) Steve Scherf et al.
# Submitted via: dBpowerAMP V12.0
#
DISCID=82111a1c
DTITLE=Tommy Duncan - Beneath A Neon Star In A Honky Tonk
DYEAR=1996
DGENRE=Country
TTITLE0=The Gossip Song
TTITLE1=California Waltz
TTITLE2=Got A Letter fom My Kid Today
TTITLE3=Jesus Is Mine
TTITLE4=Take Your Burden To The Lord
TTITLE5=Nancy Jane
TTITLE6=Relax Aand Take It Easy
TTITLE7=Move A Little Closer
TTITLE8=I Was Just Walking Out The Door
TTITLE9=I've Turned A Gadabout
TTITLE10=I Hit The Jackpot (When I Won You)
TTITLE11=I Don't Want To Hurt You
TTITLE12=Excuse Me, I Gotta Go
TTITLE13=Tomato Can
TTITLE14=Who Drank My Beer (While I Was In The Rear)
TTITLE15=Where Oh Where Has My Little Love Gone
TTITLE16=It May Take A Long, Long Time
TTITLE17=Grits And Gravy Blues
TTITLE18=Beneath A Neon Star In A Honky Tonk
TTITLE19=Stars Over San Antone
TTITLE20=I Reckon I'm A Texan
TTITLE21=I Guess You Were Right
TTITLE22=Tennessee Churchbells
TTITLE23=Hound Dog
TTITLE24=That Certain Feeling
TTITLE25=San Antonio Rose
TTITLE26=Daddy Loves Mommyo
TTITLE27=Crazy Mixed Up Kid
EXTD=
EXTT0=
EXTT1=
EXTT2=
EXTT3=
EXTT4=
EXTT5=
EXTT6=
EXTT7=
EXTT8=
EXTT9=
EXTT10=
EXTT11=
EXTT12=
EXTT13=
EXTT14=
EXTT15=
EXTT16=
EXTT17=
EXTT18=
EXTT19=
EXTT20=
EXTT21=
EXTT22=
EXTT23=
EXTT24=
EXTT25=
EXTT26=
EXTT27=
PLAYORDER=
